Motion_mu03
version=1
nRows=5
nColumns=43
inDegrees=yes
endheader
time	pelvis_tilt	pelvis_list	pelvis_rotation	pelvis_tx	pelvis_ty	pelvis_tz	hip_flexion_r	hip_adduction_r	hip_rotation_r	knee_angle_r	ankle_angle_r	subtalar_angle_r	mtp_angle_r	hip_flexion_l	hip_adduction_l	hip_rotation_l	knee_angle_l	ankle_angle_l	subtalar_angle_l	mtp_angle_l	lumbar_extension	lumbar_bending	lumbar_rotation	neck_flexion	neck_lateral_bending	neck_rotation	arm_flex_r	arm_add_r	arm_rot_r	elbow_flex_r	pro_sup_r	wrist_flex_r	wrist_dev_r	hand_finger_flex_r	arm_flex_l	arm_add_l	arm_rot_l	elbow_flex_l	pro_sup_l	wrist_flex_l	wrist_dev_l	hand_finger_flex_l
      2.81000000	     -4.26662511	     -0.23261102	    -86.56878972	     -0.02244151	      1.80127004	      0.89621028	     64.63348878	     -1.00452786	     -2.16682402	    -39.15125864	    -28.48549257	      0.61028577	     -8.11054444	     52.83723328	      3.52312893	      5.46290898	    -30.72130459	    -32.84752071	      5.95536154	     -4.62428169	    -64.61509478	     10.14200339	     -4.87346407	    -42.02128986	    -19.12730960	     -0.91437744	   -241.88636837	   -163.01520113	   -220.23284796	    157.68262965	    154.13640685	    -30.79943510	    -24.99999983	     79.45194962	    -78.70386401	    -16.35533976	    -41.93808251	    143.30573258	    157.70577456	    -70.66520643	    -24.99999983	     86.83197304
      2.81250000	     -4.19748360	     -0.27505694	    -86.53697708	     -0.02242849	      1.80150506	      0.89702175	     64.65022104	     -0.99020497	     -2.17877759	    -39.10364402	    -28.44539659	      0.58895196	     -8.10731660	     52.87721495	      3.52134671	      5.46283878	    -30.71210254	    -32.86118585	      5.97007540	     -4.62424245	    -64.65085025	     10.11711480	     -4.86629534	    -41.95897435	    -19.10635872	     -0.93380888	   -242.12185909	   -162.95458201	   -220.21003791	    157.47468545	    154.14259600	    -30.78314834	    -24.99999983	     79.47097545	    -78.67685399	    -16.37014356	    -41.91805703	    143.21541216	    157.72102585	    -70.64746528	    -24.99999983	     86.83287531
      2.81500000	     -4.05213439	     -0.27497163	    -86.55198063	     -0.02242615	      1.80199930	      0.89789694	     64.65306971	     -0.99571288	     -2.21468170	    -39.00564891	    -28.22359648	      0.47962187	     -8.08490065	     52.95771329	      3.54453543	      5.45642861	    -30.74893333	    -32.88857605	      6.05414214	     -4.61797428	    -64.67181243	     10.02559117	     -4.88701510	    -41.71267354	    -19.02141863	     -1.02196981	   -242.29117844	   -162.94420964	   -220.11007384	    157.21015309	    154.11738499	    -30.91076996	    -24.99999983	     79.49328520	    -78.42282200	    -16.46420317	    -41.69629331	    143.03351134	    157.83665905	    -70.56369903	    -24.99999983	     86.82139197
      2.81750000	     -3.98620637	     -0.31541606	    -86.52179239	     -0.02236400	      1.80219141	      0.89872776	     64.66999462	     -0.98489996	     -2.21895823	    -38.95406128	    -28.17386548	      0.45790614	     -8.08029986	     52.99092600	      3.53653502	      5.44931427	    -30.71208891	    -32.88597936	      6.07443486	     -4.61579287	    -64.69582161	     10.00658448	     -4.87080537	    -41.67328517	    -19.02175451	     -1.03676729	   -242.54228064	   -162.87606534	   -220.09053322	    157.03318453	    154.12099686	    -30.93891215	    -24.99999983	     79.49748073	    -78.38051458	    -16.45435889	    -41.66604828	    142.96289180	    157.86461919	    -70.54595906	    -24.99999983	     86.82053120
      2.82000000	     -3.93856586	     -0.31842578	    -86.59313189	     -0.02232097	      1.80259500	      0.89971332	     64.66562407	     -0.88433356	     -2.23708073	    -38.88818870	    -27.67387095	      0.51528862	     -8.11755624	     53.07876393	      3.40385477	      5.36088534	    -30.78834676	    -32.64010672	      6.53814540	     -4.46938281	    -64.71494243	      9.94625647	     -4.70605222	    -41.60727997	    -19.01758861	     -1.59019387	   -242.85566176	   -162.85965287	   -219.64323129	    156.48352040	    154.35831255	    -34.03512880	    -24.99999983	     79.54430126	    -78.05940009	    -16.52786136	    -41.47214839	    142.79725692	    158.68722969	    -70.35363903	    -24.99999983	     86.67379487
